<?xml version="1.0" standalone="no"?>
<!DOCTYPE svg PUBLIC "-//W3C//DTD SVG 20010904//EN"
 "http://www.w3.org/TR/2001/REC-SVG-20010904/DTD/svg10.dtd">
<svg version="1.0" xmlns="http://www.w3.org/2000/svg"
 width="96.000000pt" height="96.000000pt" viewBox="0 0 96.000000 96.000000"
 preserveAspectRatio="xMidYMid meet">
<metadata>
Created by potrace 1.14, written by Peter Selinger 2001-2017
</metadata>
<g transform="translate(0.000000,96.000000) scale(0.100000,-0.100000)"
fill="#000000" stroke="none">
<path d="M584 872 c6 -24 -2 -36 -62 -95 l-68 -68 4 34 c3 28 -1 38 -23 56
-36 27 -66 27 -93 -2 -50 -53 1 -133 71 -111 18 6 17 3 -6 -20 -25 -25 -31
-26 -131 -26 -97 0 -105 -1 -111 -21 -9 -27 -7 -28 69 -46 l66 -15 0 -249 0
-249 25 -12 c43 -19 52 2 59 137 4 66 7 126 8 133 1 13 18 17 18 4 0 -5 9 -51
20 -103 11 -52 23 -107 26 -124 6 -37 21 -55 45 -55 26 0 41 34 35 78 -3 20
-8 62 -12 92 -4 30 -8 66 -10 80 -2 14 -6 57 -10 95 l-6 70 46 -50 c37 -41 44
-55 40 -77 -5 -23 -2 -28 14 -28 11 0 22 6 25 14 3 8 23 19 44 26 63 20 104
51 120 88 13 30 13 48 3 113 -10 61 -10 89 0 128 14 59 6 103 -23 135 -27 28
-79 56 -106 56 -12 0 -26 9 -33 20 -7 11 -21 20 -31 20 -15 0 -17 -5 -13 -28z
m121 -71 c42 -24 58 -61 48 -114 l-9 -42 -162 -3 c-89 -1 -162 0 -162 4 0 3
42 46 93 95 87 84 94 88 127 83 19 -4 49 -14 65 -23z m39 -247 c27 -107 10
-144 -81 -170 l-57 -16 -53 56 c-45 48 -53 62 -53 95 0 45 3 46 100 50 36 1
66 4 68 5 1 2 17 3 36 4 29 1 35 -3 40 -24z"/>
</g>
</svg>
